<svg xmlns="http://www.w3.org/2000/svg" width="1160" height="540" viewBox="0 0 1160 540" font-family="ui-sans-serif, system-ui, -apple-system, 'Segoe UI', sans-serif">
<rect width="1160" height="540" fill="#0a0a0b"/>
<text x="36" y="46" fill="#fafafa" font-size="26" font-weight="700">Median score by account age</text>
<line x1="66" y1="386.4" x2="1130" y2="386.4" stroke="#3f3f46" stroke-width="1" stroke-dasharray="3 5"/><text x="56" y="391.4" fill="#a1a1aa" font-size="14" text-anchor="end">20</text><line x1="66" y1="310.79999999999995" x2="1130" y2="310.79999999999995" stroke="#3f3f46" stroke-width="1" stroke-dasharray="3 5"/><text x="56" y="315.79999999999995" fill="#a1a1aa" font-size="14" text-anchor="end">40</text><line x1="66" y1="235.20000000000002" x2="1130" y2="235.20000000000002" stroke="#3f3f46" stroke-width="1" stroke-dasharray="3 5"/><text x="56" y="240.20000000000002" fill="#a1a1aa" font-size="14" text-anchor="end">60</text><line x1="66" y1="159.59999999999997" x2="1130" y2="159.59999999999997" stroke="#3f3f46" stroke-width="1" stroke-dasharray="3 5"/><text x="56" y="164.59999999999997" fill="#a1a1aa" font-size="14" text-anchor="end">80</text><rect x="72.0" y="395.9" width="84.7" height="66.1" rx="4" fill="#ea580c" opacity="0.45"/><text x="114.4" y="385.9" fill="#fafafa" font-size="15" text-anchor="middle">18</text><text x="114.4" y="488" fill="#a1a1aa" font-size="14" text-anchor="middle">0</text><rect x="168.7" y="348.8" width="84.7" height="113.2" rx="4" fill="#ea580c" opacity="0.505"/><text x="211.1" y="338.8" fill="#fafafa" font-size="15" text-anchor="middle">30</text><text x="211.1" y="488" fill="#a1a1aa" font-size="14" text-anchor="middle">1</text><rect x="265.5" y="317.6" width="84.7" height="144.4" rx="4" fill="#ea580c" opacity="0.56"/><text x="307.8" y="307.6" fill="#fafafa" font-size="15" text-anchor="middle">38</text><text x="307.8" y="488" fill="#a1a1aa" font-size="14" text-anchor="middle">2</text><rect x="362.2" y="288.7" width="84.7" height="173.3" rx="4" fill="#ea580c" opacity="0.615"/><text x="404.5" y="278.7" fill="#fafafa" font-size="15" text-anchor="middle">46</text><text x="404.5" y="488" fill="#a1a1aa" font-size="14" text-anchor="middle">3</text><rect x="458.9" y="256.7" width="84.7" height="205.3" rx="4" fill="#ea580c" opacity="0.67"/><text x="501.3" y="246.7" fill="#fafafa" font-size="15" text-anchor="middle">54</text><text x="501.3" y="488" fill="#a1a1aa" font-size="14" text-anchor="middle">4</text><rect x="555.6" y="246.9" width="84.7" height="215.1" rx="4" fill="#ea580c" opacity="0.7250000000000001"/><text x="598.0" y="236.9" fill="#fafafa" font-size="15" text-anchor="middle">57</text><text x="598.0" y="488" fill="#a1a1aa" font-size="14" text-anchor="middle">5</text><rect x="652.4" y="237.8" width="84.7" height="224.2" rx="4" fill="#ea580c" opacity="0.78"/><text x="694.7" y="227.8" fill="#fafafa" font-size="15" text-anchor="middle">59</text><text x="694.7" y="488" fill="#a1a1aa" font-size="14" text-anchor="middle">6</text><rect x="749.1" y="226.1" width="84.7" height="235.9" rx="4" fill="#ea580c" opacity="0.835"/><text x="791.5" y="216.1" fill="#fafafa" font-size="15" text-anchor="middle">62</text><text x="791.5" y="488" fill="#a1a1aa" font-size="14" text-anchor="middle">7</text><rect x="845.8" y="197.0" width="84.7" height="265.0" rx="4" fill="#ea580c" opacity="0.89"/><text x="888.2" y="187.0" fill="#fafafa" font-size="15" text-anchor="middle">70</text><text x="888.2" y="488" fill="#a1a1aa" font-size="14" text-anchor="middle">8</text><rect x="942.5" y="175.7" width="84.7" height="286.3" rx="4" fill="#ea580c" opacity="0.9450000000000001"/><text x="984.9" y="165.7" fill="#fafafa" font-size="15" text-anchor="middle">76</text><text x="984.9" y="488" fill="#a1a1aa" font-size="14" text-anchor="middle">9</text><rect x="1039.3" y="138.8" width="84.7" height="323.2" rx="4" fill="#ea580c" opacity="1"/><text x="1081.6" y="128.8" fill="#fafafa" font-size="15" text-anchor="middle">86</text><text x="1081.6" y="488" fill="#a1a1aa" font-size="14" text-anchor="middle">10+</text><text x="1130" y="514" fill="#a1a1aa" font-size="15" text-anchor="end">account age (years) →</text>
<text x="36" y="520" fill="#3f3f46" font-size="14">median final score per account-age bucket · ghfind.com</text>
</svg>