<svg xmlns="http://www.w3.org/2000/svg" width="1160" height="624" viewBox="0 0 1160 624" font-family="ui-sans-serif, system-ui, -apple-system, 'Segoe UI', sans-serif">
<rect width="1160" height="624" fill="#0a0a0b"/>
<text x="36" y="46" fill="#fafafa" font-size="26" font-weight="700">What high scorers write (score ≥ 60)</text>
<text x="186" y="106" fill="#fafafa" font-size="16" text-anchor="end">TypeScript</text><rect x="200" y="90" width="850.0" height="24" rx="4" fill="#ea580c" opacity="1"/><text x="1060" y="107" fill="#a1a1aa" font-size="15">520</text><text x="186" y="146" fill="#fafafa" font-size="16" text-anchor="end">Python</text><rect x="200" y="130" width="751.9" height="24" rx="4" fill="#f97316" opacity="0.945"/><text x="961.9230769230769" y="147" fill="#a1a1aa" font-size="15">460</text><text x="186" y="186" fill="#fafafa" font-size="16" text-anchor="end">JavaScript</text><rect x="200" y="170" width="645.7" height="24" rx="4" fill="#f97316" opacity="0.89"/><text x="855.6730769230769" y="187" fill="#a1a1aa" font-size="15">395</text><text x="186" y="226" fill="#fafafa" font-size="16" text-anchor="end">Rust</text><rect x="200" y="210" width="367.8" height="24" rx="4" fill="#f97316" opacity="0.835"/><text x="577.7884615384615" y="227" fill="#a1a1aa" font-size="15">225</text><text x="186" y="266" fill="#fafafa" font-size="16" text-anchor="end">C++</text><rect x="200" y="250" width="328.6" height="24" rx="4" fill="#f97316" opacity="0.78"/><text x="538.5576923076924" y="267" fill="#a1a1aa" font-size="15">201</text><text x="186" y="306" fill="#fafafa" font-size="16" text-anchor="end">Go</text><rect x="200" y="290" width="308.9" height="24" rx="4" fill="#f97316" opacity="0.725"/><text x="518.9423076923076" y="307" fill="#a1a1aa" font-size="15">189</text><text x="186" y="346" fill="#fafafa" font-size="16" text-anchor="end">C</text><rect x="200" y="330" width="300.8" height="24" rx="4" fill="#f97316" opacity="0.6699999999999999"/><text x="510.7692307692308" y="347" fill="#a1a1aa" font-size="15">184</text><text x="186" y="386" fill="#fafafa" font-size="16" text-anchor="end">Java</text><rect x="200" y="370" width="259.9" height="24" rx="4" fill="#f97316" opacity="0.615"/><text x="469.9038461538462" y="387" fill="#a1a1aa" font-size="15">159</text><text x="186" y="426" fill="#fafafa" font-size="16" text-anchor="end">Vue</text><rect x="200" y="410" width="194.5" height="24" rx="4" fill="#f97316" opacity="0.56"/><text x="404.5192307692308" y="427" fill="#a1a1aa" font-size="15">119</text><text x="186" y="466" fill="#fafafa" font-size="16" text-anchor="end">Kotlin</text><rect x="200" y="450" width="135.7" height="24" rx="4" fill="#f97316" opacity="0.505"/><text x="345.6730769230769" y="467" fill="#a1a1aa" font-size="15">83</text><text x="186" y="506" fill="#fafafa" font-size="16" text-anchor="end">C#</text><rect x="200" y="490" width="127.5" height="24" rx="4" fill="#f97316" opacity="0.44999999999999996"/><text x="337.5" y="507" fill="#a1a1aa" font-size="15">78</text><text x="186" y="546" fill="#fafafa" font-size="16" text-anchor="end">PHP</text><rect x="200" y="530" width="73.6" height="24" rx="4" fill="#f97316" opacity="0.395"/><text x="283.5576923076923" y="547" fill="#a1a1aa" font-size="15">45</text>
<text x="36" y="604" fill="#3f3f46" font-size="14">primary languages among accounts scoring 60+; one dev can count toward several · ghfind.com</text>
</svg>