<svg xmlns="http://www.w3.org/2000/svg" width="1160" height="584" viewBox="0 0 1160 584" font-family="ui-sans-serif, system-ui, -apple-system, 'Segoe UI', sans-serif">
<rect width="1160" height="584" fill="#0a0a0b"/>
<text x="36" y="46" fill="#fafafa" font-size="26" font-weight="700">Red-flag prevalence across 3.4k accounts</text>
<text x="306" y="106" fill="#fafafa" font-size="16" text-anchor="end" font-family="ui-sans-serif, system-ui, -apple-system, 'Segoe UI', sans-serif">ghost_profile</text><rect x="320" y="90" width="710.0" height="24" rx="4" fill="#ea580c"/><text x="1040" y="107" fill="#a1a1aa" font-size="15">345 (10.0%)</text><text x="306" y="146" fill="#fafafa" font-size="16" text-anchor="end" font-family="ui-sans-serif, system-ui, -apple-system, 'Segoe UI', sans-serif">no_original_work</text><rect x="320" y="130" width="584.5" height="24" rx="4" fill="#ea580c"/><text x="914.463768115942" y="147" fill="#a1a1aa" font-size="15">284 (8.2%)</text><text x="306" y="186" fill="#fafafa" font-size="16" text-anchor="end" font-family="ui-sans-serif, system-ui, -apple-system, 'Segoe UI', sans-serif">mostly_forks</text><rect x="320" y="170" width="508.3" height="24" rx="4" fill="#ea580c"/><text x="838.3188405797102" y="187" fill="#a1a1aa" font-size="15">247 (7.2%)</text><text x="306" y="226" fill="#fafafa" font-size="16" text-anchor="end" font-family="ui-sans-serif, system-ui, -apple-system, 'Segoe UI', sans-serif">templated_pr_flooding</text><rect x="320" y="210" width="35.0" height="24" rx="4" fill="#71717a"/><text x="364.9855072463768" y="227" fill="#a1a1aa" font-size="15">17 (0.5%)</text><text x="306" y="266" fill="#fafafa" font-size="16" text-anchor="end" font-family="ui-sans-serif, system-ui, -apple-system, 'Segoe UI', sans-serif">trivial_pr_farming</text><rect x="320" y="250" width="22.6" height="24" rx="4" fill="#71717a"/><text x="352.6376811594203" y="267" fill="#a1a1aa" font-size="15">11 (0.3%)</text><text x="306" y="306" fill="#fafafa" font-size="16" text-anchor="end" font-family="ui-sans-serif, system-ui, -apple-system, 'Segoe UI', sans-serif">high_pr_rejection</text><rect x="320" y="290" width="10.3" height="24" rx="4" fill="#71717a"/><text x="340.28985507246375" y="307" fill="#a1a1aa" font-size="15">5 (0.1%)</text><text x="306" y="346" fill="#fafafa" font-size="16" text-anchor="end" font-family="ui-sans-serif, system-ui, -apple-system, 'Segoe UI', sans-serif">burst_then_dormant</text><rect x="320" y="330" width="8.2" height="24" rx="4" fill="#71717a"/><text x="338.231884057971" y="347" fill="#a1a1aa" font-size="15">4 (0.1%)</text><text x="306" y="386" fill="#fafafa" font-size="16" text-anchor="end" font-family="ui-sans-serif, system-ui, -apple-system, 'Segoe UI', sans-serif">new_account_mass_repos</text><rect x="320" y="370" width="8.2" height="24" rx="4" fill="#71717a"/><text x="338.231884057971" y="387" fill="#a1a1aa" font-size="15">4 (0.1%)</text><text x="306" y="426" fill="#fafafa" font-size="16" text-anchor="end" font-family="ui-sans-serif, system-ui, -apple-system, 'Segoe UI', sans-serif">follow_farming</text><rect x="320" y="410" width="6.2" height="24" rx="4" fill="#71717a"/><text x="336.17391304347825" y="427" fill="#a1a1aa" font-size="15">3 (0.1%)</text><text x="306" y="466" fill="#fafafa" font-size="16" text-anchor="end" font-family="ui-sans-serif, system-ui, -apple-system, 'Segoe UI', sans-serif">mostly_empty_repos</text><rect x="320" y="450" width="4.1" height="24" rx="4" fill="#71717a"/><text x="334.1159420289855" y="467" fill="#a1a1aa" font-size="15">2 (0.1%)</text><text x="306" y="506" fill="#fafafa" font-size="16" text-anchor="end" font-family="ui-sans-serif, system-ui, -apple-system, 'Segoe UI', sans-serif">social_only_dormant_profile</text><rect x="320" y="490" width="2.1" height="24" rx="4" fill="#71717a"/><text x="332.05797101449275" y="507" fill="#a1a1aa" font-size="15">1 (0.0%)</text>
<text x="36" y="564" fill="#3f3f46" font-size="14">share of accounts triggering each deterministic red flag; one account can trigger several · ghfind.com</text>
</svg>