<svg xmlns="http://www.w3.org/2000/svg" width="1160" height="560" viewBox="0 0 1160 560" font-family="ui-sans-serif, system-ui, -apple-system, 'Segoe UI', sans-serif">
<rect width="1160" height="560" fill="#0a0a0b"/>
<text x="36" y="46" fill="#fafafa" font-size="26" font-weight="700">Final score distribution (19k accounts)</text>
<rect x="68.0" y="84.0" width="49.2" height="398.0" rx="3" fill="#52525b"/><text x="92.6" y="76.0" fill="#a1a1aa" font-size="13" text-anchor="middle">2.4k</text><rect x="121.2" y="386.9" width="49.2" height="95.1" rx="3" fill="#52525b"/><text x="145.8" y="378.9" fill="#a1a1aa" font-size="13" text-anchor="middle">563</text><rect x="174.4" y="348.3" width="49.2" height="133.7" rx="3" fill="#52525b"/><text x="199.0" y="340.3" fill="#a1a1aa" font-size="13" text-anchor="middle">792</text><rect x="227.6" y="317.5" width="49.2" height="164.5" rx="3" fill="#52525b"/><text x="252.2" y="309.5" fill="#a1a1aa" font-size="13" text-anchor="middle">974</text><rect x="280.8" y="279.0" width="49.2" height="203.0" rx="3" fill="#52525b"/><text x="305.4" y="271.0" fill="#a1a1aa" font-size="13" text-anchor="middle">1.2k</text><rect x="334.0" y="268.9" width="49.2" height="213.1" rx="3" fill="#52525b"/><text x="358.6" y="260.9" fill="#a1a1aa" font-size="13" text-anchor="middle">1.3k</text><rect x="387.2" y="299.3" width="49.2" height="182.7" rx="3" fill="#52525b"/><text x="411.8" y="291.3" fill="#a1a1aa" font-size="13" text-anchor="middle">1.1k</text><rect x="440.4" y="318.4" width="49.2" height="163.6" rx="3" fill="#52525b"/><text x="465.0" y="310.4" fill="#a1a1aa" font-size="13" text-anchor="middle">969</text><rect x="493.6" y="307.9" width="49.2" height="174.1" rx="3" fill="#71717a"/><text x="518.2" y="299.9" fill="#a1a1aa" font-size="13" text-anchor="middle">1.0k</text><rect x="546.8" y="302.3" width="49.2" height="179.7" rx="3" fill="#71717a"/><text x="571.4" y="294.3" fill="#a1a1aa" font-size="13" text-anchor="middle">1.1k</text><rect x="600.0" y="317.4" width="49.2" height="164.6" rx="3" fill="#71717a"/><text x="624.6" y="309.4" fill="#a1a1aa" font-size="13" text-anchor="middle">975</text><rect x="653.2" y="306.0" width="49.2" height="176.0" rx="3" fill="#71717a"/><text x="677.8" y="298.0" fill="#a1a1aa" font-size="13" text-anchor="middle">1.0k</text><rect x="706.4" y="328.0" width="49.2" height="154.0" rx="3" fill="#71717a"/><text x="731.0" y="320.0" fill="#a1a1aa" font-size="13" text-anchor="middle">912</text><rect x="759.6" y="327.3" width="49.2" height="154.7" rx="3" fill="#71717a"/><text x="784.2" y="319.3" fill="#a1a1aa" font-size="13" text-anchor="middle">916</text><rect x="812.8" y="338.5" width="49.2" height="143.5" rx="3" fill="#fb923c"/><text x="837.4" y="330.5" fill="#a1a1aa" font-size="13" text-anchor="middle">850</text><rect x="866.0" y="345.6" width="49.2" height="136.4" rx="3" fill="#fb923c"/><text x="890.6" y="337.6" fill="#a1a1aa" font-size="13" text-anchor="middle">808</text><rect x="919.2" y="353.3" width="49.2" height="128.7" rx="3" fill="#f97316"/><text x="943.8" y="345.3" fill="#a1a1aa" font-size="13" text-anchor="middle">762</text><rect x="972.4" y="367.0" width="49.2" height="115.0" rx="3" fill="#f97316"/><text x="997.0" y="359.0" fill="#a1a1aa" font-size="13" text-anchor="middle">681</text><rect x="1025.6" y="409.2" width="49.2" height="72.8" rx="3" fill="#ea580c"/><text x="1050.2" y="401.2" fill="#a1a1aa" font-size="13" text-anchor="middle">431</text><rect x="1078.8" y="435.7" width="49.2" height="46.3" rx="3" fill="#ea580c"/><text x="1103.4" y="427.7" fill="#a1a1aa" font-size="13" text-anchor="middle">274</text><text x="66" y="508" fill="#a1a1aa" font-size="15" text-anchor="middle">0</text><line x1="66" y1="84" x2="66" y2="482" stroke="#3f3f46" stroke-width="1" stroke-dasharray="3 5"/><text x="278.8" y="508" fill="#a1a1aa" font-size="15" text-anchor="middle">20</text><line x1="278.8" y1="84" x2="278.8" y2="482" stroke="#3f3f46" stroke-width="1" stroke-dasharray="3 5"/><text x="491.6" y="508" fill="#a1a1aa" font-size="15" text-anchor="middle">40</text><line x1="491.6" y1="84" x2="491.6" y2="482" stroke="#3f3f46" stroke-width="1" stroke-dasharray="3 5"/><text x="704.4000000000001" y="508" fill="#a1a1aa" font-size="15" text-anchor="middle">60</text><line x1="704.4000000000001" y1="84" x2="704.4000000000001" y2="482" stroke="#3f3f46" stroke-width="1" stroke-dasharray="3 5"/><text x="917.2" y="508" fill="#a1a1aa" font-size="15" text-anchor="middle">80</text><line x1="917.2" y1="84" x2="917.2" y2="482" stroke="#3f3f46" stroke-width="1" stroke-dasharray="3 5"/><text x="1130" y="508" fill="#a1a1aa" font-size="15" text-anchor="middle">100</text><line x1="1130" y1="84" x2="1130" y2="482" stroke="#3f3f46" stroke-width="1" stroke-dasharray="3 5"/><text x="1130" y="534" fill="#a1a1aa" font-size="15" text-anchor="end">score →</text>
<text x="36" y="540" fill="#3f3f46" font-size="14">n = 18,947 scored public accounts, 5-point buckets · ghfind.com</text>
</svg>