<svg xmlns="http://www.w3.org/2000/svg" width="1160" height="560" viewBox="0 0 1160 560" font-family="ui-sans-serif, system-ui, -apple-system, 'Segoe UI', sans-serif">
<rect width="1160" height="560" fill="#0a0a0b"/>
<text x="36" y="46" fill="#fafafa" font-size="26" font-weight="700">The hidden spam score we never show anyone</text>
<rect x="70.0" y="84.0" width="98.4" height="398.0" rx="4" fill="#71717a"/><text x="119.2" y="76.0" fill="#a1a1aa" font-size="14" text-anchor="middle">15k</text><text x="119.2" y="508" fill="#a1a1aa" font-size="15" text-anchor="middle">0</text><rect x="176.4" y="144.1" width="98.4" height="337.9" rx="4" fill="#71717a"/><text x="225.6" y="136.1" fill="#a1a1aa" font-size="14" text-anchor="middle">3.4k</text><text x="225.6" y="508" fill="#a1a1aa" font-size="15" text-anchor="middle">1</text><rect x="282.8" y="206.6" width="98.4" height="275.4" rx="4" fill="#71717a"/><text x="332.0" y="198.6" fill="#a1a1aa" font-size="14" text-anchor="middle">762</text><text x="332.0" y="508" fill="#a1a1aa" font-size="15" text-anchor="middle">2</text><rect x="389.2" y="326.9" width="98.4" height="155.1" rx="4" fill="#ea580c"/><text x="438.4" y="318.9" fill="#a1a1aa" font-size="14" text-anchor="middle">41</text><text x="438.4" y="508" fill="#a1a1aa" font-size="15" text-anchor="middle">3</text><rect x="495.6" y="355.7" width="98.4" height="126.3" rx="4" fill="#ea580c"/><text x="544.8" y="347.7" fill="#a1a1aa" font-size="14" text-anchor="middle">20</text><text x="544.8" y="508" fill="#a1a1aa" font-size="15" text-anchor="middle">4</text><rect x="602.0" y="362.1" width="98.4" height="119.9" rx="4" fill="#ea580c"/><text x="651.2" y="354.1" fill="#a1a1aa" font-size="14" text-anchor="middle">17</text><text x="651.2" y="508" fill="#a1a1aa" font-size="15" text-anchor="middle">5</text><rect x="708.4" y="355.7" width="98.4" height="126.3" rx="4" fill="#ea580c"/><text x="757.6" y="347.7" fill="#a1a1aa" font-size="14" text-anchor="middle">20</text><text x="757.6" y="508" fill="#a1a1aa" font-size="15" text-anchor="middle">6</text><rect x="814.8" y="395.7" width="98.4" height="86.3" rx="4" fill="#dc2626"/><text x="864.0" y="387.7" fill="#a1a1aa" font-size="14" text-anchor="middle">7</text><text x="864.0" y="508" fill="#a1a1aa" font-size="15" text-anchor="middle">7</text><rect x="921.2" y="415.2" width="98.4" height="66.8" rx="4" fill="#dc2626"/><text x="970.4" y="407.2" fill="#a1a1aa" font-size="14" text-anchor="middle">4</text><text x="970.4" y="508" fill="#a1a1aa" font-size="15" text-anchor="middle">8</text><rect x="1027.6" y="453.2" width="98.4" height="28.8" rx="4" fill="#dc2626"/><text x="1076.8" y="445.2" fill="#a1a1aa" font-size="14" text-anchor="middle">1</text><text x="1076.8" y="508" fill="#a1a1aa" font-size="15" text-anchor="middle">9</text><text x="1130" y="534" fill="#a1a1aa" font-size="15" text-anchor="end">hidden spam score (0 = clean, 10 = heavy farming) →</text>
<text x="36" y="540" fill="#3f3f46" font-size="14">n = 18,934 accounts; log-scale y axis — the tail is the story · ghfind.com</text>
</svg>